<svg xmlns="http://www.w3.org/2000/svg" xmlns:xlink="http://www.w3.org/1999/xlink" viewBox="0 0 500 131.14"><defs><style>.cls-1{isolation:isolate;}.cls-2{fill:url(#linear-gradient);}.cls-3{opacity:0.5;mix-blend-mode:color-dodge;}.cls-4{fill:#a0f;}.cls-5,.cls-6{fill:#fff;}.cls-6{opacity:0.1;mix-blend-mode:overlay;}.cls-7{fill:url(#linear-gradient-2);}.cls-8{fill:url(#linear-gradient-3);}.cls-9{fill:url(#linear-gradient-4);}.cls-10{fill:url(#linear-gradient-5);}.cls-11{fill:url(#linear-gradient-6);}.cls-12{fill:url(#linear-gradient-7);}.cls-13{fill:url(#linear-gradient-8);}.cls-14{fill:url(#linear-gradient-9);}.cls-15{fill:url(#linear-gradient-10);}.cls-16{fill:url(#linear-gradient-11);}.cls-17{fill:url(#linear-gradient-12);}.cls-18{fill:url(#linear-gradient-13);}.cls-19{fill:url(#linear-gradient-14);}.cls-20{fill:url(#linear-gradient-15);}.cls-21{font-size:21px;fill:#5e197f;font-family:Heebo-Medium, Heebo Medium;font-weight:500;letter-spacing:0.22em;}.cls-22{letter-spacing:0.2em;}.cls-23{letter-spacing:0.22em;}.cls-24{letter-spacing:0.22em;}</style><linearGradient id="linear-gradient" x1="50.9" y1="92.46" x2="104.85" y2="38.16" gradientUnits="userSpaceOnUse"><stop offset="0" stop-color="#5d197f"/><stop offset="1" stop-color="#1b1340"/></linearGradient><linearGradient id="linear-gradient-2" x1="140.05" y1="80.51" x2="140.78" y2="29.89" gradientUnits="userSpaceOnUse"><stop offset="0" stop-color="#5d197f"/><stop offset="0.39" stop-color="#5b197d"/><stop offset="0.59" stop-color="#531875"/><stop offset="0.75" stop-color="#461769"/><stop offset="0.88" stop-color="#331557"/><stop offset="1" stop-color="#1b1340"/></linearGradient><linearGradient id="linear-gradient-3" x1="167.35" y1="80.9" x2="168.07" y2="30.29" xlink:href="#linear-gradient-2"/><linearGradient id="linear-gradient-4" x1="196.33" y1="81.32" x2="197.06" y2="30.7" xlink:href="#linear-gradient-2"/><linearGradient id="linear-gradient-5" x1="223.75" y1="81.71" x2="224.48" y2="31.1" xlink:href="#linear-gradient-2"/><linearGradient id="linear-gradient-6" x1="247.09" y1="82.05" x2="247.81" y2="31.43" xlink:href="#linear-gradient-2"/><linearGradient id="linear-gradient-7" x1="269.16" y1="82.37" x2="269.89" y2="31.73" xlink:href="#linear-gradient-2"/><linearGradient id="linear-gradient-8" x1="296.22" y1="82.76" x2="296.94" y2="32.14" xlink:href="#linear-gradient-2"/><linearGradient id="linear-gradient-9" x1="326.33" y1="83.19" x2="327.05" y2="32.57" xlink:href="#linear-gradient-2"/><linearGradient id="linear-gradient-10" x1="354.61" y1="83.6" x2="355.34" y2="32.98" xlink:href="#linear-gradient-2"/><linearGradient id="linear-gradient-11" x1="377.26" y1="83.92" x2="377.99" y2="33.31" xlink:href="#linear-gradient-2"/><linearGradient id="linear-gradient-12" x1="401.45" y1="84.27" x2="402.18" y2="33.66" xlink:href="#linear-gradient-2"/><linearGradient id="linear-gradient-13" x1="430.02" y1="84.68" x2="430.74" y2="34.07" xlink:href="#linear-gradient-2"/><linearGradient id="linear-gradient-14" x1="450.02" y1="84.97" x2="450.75" y2="34.35" xlink:href="#linear-gradient-2"/><linearGradient id="linear-gradient-15" x1="456.98" y1="85.07" x2="457.71" y2="34.45" xlink:href="#linear-gradient-2"/></defs><title>rd-horizontal-logo+wordmark+invest-with-control-fullcolor</title><g class="cls-1"><g id="horz_-_logo_wordmark_tagline" data-name="horz - logo + wordmark + tagline"><g id="logo_wordmark_take_control_-_full_color" data-name="logo + wordmark + take control - full color"><g id="logo"><circle class="cls-2" cx="77.61" cy="65.57" r="38.74"/><g id="ring" class="cls-3"><path class="cls-4" d="M77.61,31a34.37,34.37,0,1,1-13.44,2.71A34.35,34.35,0,0,1,77.61,31m0-4.2a38.74,38.74,0,1,0,38.74,38.74A38.73,38.73,0,0,0,77.61,26.83Z"/></g><g id="rocket"><polygon class="cls-5" points="65.78 58.48 50.85 73.4 65.78 73.4 65.78 58.48"/><polygon class="cls-5" points="74.73 54.76 78.45 51.04 91.85 51.05 91.85 59.23 88.15 62.93 88.15 54.75 80.72 54.75 78.48 56.99 78.48 56.99 78.46 69.51 78.46 69.67 78.46 69.67 78.45 83.07 93.54 67.98 83.09 67.98 83.09 67.97 79.36 67.97 83.09 64.25 86.82 64.25 86.82 64.24 97.27 64.25 97.27 64.25 97.1 45.8 78.45 45.8 74.73 49.52 73.21 51.04 73.21 51.04 69.52 54.73 69.5 92.02 74.75 86.77 74.73 54.76"/></g><circle id="highlight" class="cls-6" cx="77.61" cy="65.57" r="38.74"/></g><g id="wordmark"><path class="cls-7" d="M135.2,54.47v9.64h-6V39h8.2c3.82,0,6.64.62,8.48,1.87a6.38,6.38,0,0,1,2.75,5.66,6.17,6.17,0,0,1-1.37,3.94,9,9,0,0,1-3.86,2.71l8.27,11h-6.62l-6.71-9.64Zm0-4.33h1.92a8,8,0,0,0,4.17-.85,2.88,2.88,0,0,0,1.35-2.64,2.68,2.68,0,0,0-1.38-2.55,9.21,9.21,0,0,0-4.26-.75h-1.8Z"/><path class="cls-8" d="M181.16,51.51q0,6.24-3.47,9.59t-9.92,3.35q-6.47,0-9.93-3.35t-3.46-9.62q0-6.28,3.47-9.59t10-3.3q6.48,0,9.91,3.33T181.16,51.51Zm-20.53,0q0,4.22,1.79,6.34A6.59,6.59,0,0,0,167.77,60q7.14,0,7.14-8.47T167.81,43a6.64,6.64,0,0,0-5.37,2.14C161.24,46.59,160.63,48.7,160.63,51.51Z"/><path class="cls-9" d="M199.32,43.05a6.37,6.37,0,0,0-5.21,2.26,9.71,9.71,0,0,0-1.85,6.3q0,8.41,7.06,8.41a24.44,24.44,0,0,0,7.18-1.33v4.47a22,22,0,0,1-7.73,1.29c-4.1,0-7.22-1.11-9.39-3.32s-3.25-5.4-3.25-9.55a14.28,14.28,0,0,1,1.59-6.87,10.93,10.93,0,0,1,4.59-4.52,14.85,14.85,0,0,1,7-1.57,20.84,20.84,0,0,1,8.24,1.77l-1.93,4.33c-1-.45-2.11-.83-3.17-1.17A10.6,10.6,0,0,0,199.32,43.05Z"/><path class="cls-10" d="M235.49,64.11h-6.77l-7.36-10.59-2.52,1.62v9h-6V39h6v11.5l2.34-3L228.8,39h6.62L225.61,50.1Z"/><path class="cls-11" d="M255.62,64.11H239.43V39h16.19v4.37H245.39v5.51h9.52v4.37h-9.52v6.48h10.23Z"/><path class="cls-12" d="M272.73,64.11h-6V43.42h-7.64V39h21.24v4.44h-7.64Z"/><path class="cls-13" d="M308.42,51.3q0,6.21-3.95,9.51t-11.42,3.3h-8V39h8.83q6.88,0,10.69,3.25T308.42,51.3Zm-6.19.14q0-8.09-8-8.09h-3.18V59.71h2.56Q302.24,59.71,302.23,51.44Z"/><path class="cls-14" d="M340.17,51.51q0,6.24-3.46,9.59t-9.93,3.35q-6.46,0-9.92-3.35t-3.47-9.62q0-6.28,3.48-9.59t9.95-3.3q6.48,0,9.92,3.33T340.17,51.51Zm-20.52,0q0,4.22,1.78,6.34A6.61,6.61,0,0,0,326.78,60q7.14,0,7.14-8.47T326.82,43a6.64,6.64,0,0,0-5.37,2.14C320.25,46.59,319.65,48.7,319.65,51.51Z"/><path class="cls-15" d="M346.39,64.11V39h6V59.71h11.41v4.4Z"/><path class="cls-16" d="M369,64.11V39h6V59.71h11.41v4.4Z"/><path class="cls-17" d="M408.9,64.11l-2-6H396.61l-2,6h-6.42l9.92-25.23h7.29l10,25.23Zm-3.46-10.45c-1.88-5.42-2.95-8.49-3.18-9.2s-.41-1.27-.51-1.68q-.64,2.2-3.64,10.88Z"/><path class="cls-18" d="M425.22,54.47v9.64h-6V39h8.19c3.83,0,6.65.62,8.49,1.87a6.38,6.38,0,0,1,2.75,5.66,6.17,6.17,0,0,1-1.37,3.94,9,9,0,0,1-3.86,2.71l8.27,11h-6.62l-6.71-9.64Zm0-4.33h1.93a8.07,8.07,0,0,0,4.17-.85,2.88,2.88,0,0,0,1.35-2.64,2.68,2.68,0,0,0-1.38-2.55,9.27,9.27,0,0,0-4.26-.75h-1.81Z"/><path class="cls-19" d="M451.38,45.05H450V39.72h-1.79V38.57h5v1.15h-1.79Z"/><path class="cls-20" d="M456.87,45.05,455.28,40h0q.09,1.55.09,2.07v3h-1.25V38.57H456l1.56,5h0l1.65-5h1.9v6.48h-1.3V42c0-.15,0-.32,0-.5s0-.7.06-1.51h0l-1.7,5.07Z"/></g><text class="cls-21" transform="translate(129.33 92.28)">INVES<tspan class="cls-22" x="82.27" y="0">T</tspan><tspan class="cls-23" x="99.2" y="0" xml:space="preserve"> WITH CONTRO</tspan><tspan class="cls-24" x="301.05" y="0">L</tspan></text></g></g></g></svg>